<svg width="59" height="59" viewBox="0 0 59 59" fill="none" xmlns="http://www.w3.org/2000/svg">
<path d="M58.0024 28.8202C58.0415 33.8867 56.746 38.8743 54.2461 43.2814C53.9224 43.8539 53.5795 44.4139 53.2174 44.9614C53.0384 45.2397 52.8059 45.4797 52.5334 45.6674C52.261 45.8552 51.954 45.987 51.6302 46.0552C51.3064 46.1234 50.9723 46.1266 50.6473 46.0647C50.3222 46.0028 50.0127 45.877 49.7366 45.6946C49.4606 45.5122 49.2235 45.2768 49.0391 45.0021C48.8547 44.7273 48.7267 44.4187 48.6624 44.0941C48.5982 43.7695 48.599 43.4354 48.6649 43.1112C48.7308 42.7869 48.8604 42.479 49.0461 42.2052C51.432 38.5835 52.792 34.383 52.9815 30.0502C53.171 25.7174 52.183 21.4142 50.1225 17.598C48.062 13.7819 45.0059 10.5953 41.2792 8.37709C37.5525 6.15887 33.2943 4.99188 28.9574 5.00015C20.6211 5.0164 13.2299 9.39265 8.93365 15.9314C6.36536 19.8324 4.9987 24.4015 5.00314 29.072C5.00758 33.7426 6.38294 38.309 8.95865 42.2052C9.32382 42.7586 9.45416 43.4345 9.32101 44.0841C9.18786 44.7336 8.80212 45.3037 8.24865 45.6689C7.69517 46.0341 7.01931 46.1644 6.36973 46.0313C5.72015 45.8981 5.15007 45.5124 4.7849 44.9589C1.9289 40.6248 0.288439 35.6036 0.034684 30.4193C-0.219071 25.235 0.923185 20.0775 3.34226 15.4852C5.76133 10.8929 9.36856 7.03394 13.7875 4.31105C18.2065 1.58817 23.2753 0.101148 28.4649 0.00515313C28.6474 0.00140313 28.8286 0.000153017 29.0099 0.000153017C36.6742 -0.0156337 44.0316 3.01019 49.4672 8.41345C54.9028 13.8167 57.9724 21.1559 58.0024 28.8202V28.8202Z" fill="white"/>
<path d="M11.5078 33.4711L16.0388 56.0111C16.3108 57.3642 17.6282 58.2406 18.9813 57.9686C20.3344 57.6966 21.2108 56.3792 20.9388 55.0261L16.4078 32.4861C16.1358 31.133 14.8184 30.2566 13.4653 30.5286C12.1122 30.8006 11.2358 32.118 11.5078 33.4711Z" fill="#04D361"/>
<path d="M15.9524 55.5026L14.8037 55.7338C13.0967 56.0775 11.323 55.7561 9.8452 54.8352C8.36742 53.9144 7.29728 52.4638 6.85366 50.7801C6.81991 50.6501 6.78866 50.5201 6.76241 50.3876L5.11616 42.2088C4.7594 40.4334 5.12213 38.589 6.12461 37.081C7.1271 35.5729 8.68733 34.5245 10.4624 34.1663L11.6112 33.935L13.6262 43.945L15.9524 55.5026Z" fill="white"/>
<path d="M15.9524 55.5026L14.8037 55.7338C13.0967 56.0775 11.323 55.7561 9.84519 54.8353C8.36741 53.9144 7.29727 52.4638 6.85365 50.7801C9.28146 48.6771 11.5455 46.3921 13.6262 43.9451L15.9524 55.5026Z" fill="white"/>
<path d="M54.8386 40.3401L54.2461 43.2813C53.9224 43.8538 53.5795 44.4138 53.2174 44.9613C53.0384 45.2396 52.8059 45.4796 52.5334 45.6673C52.261 45.8551 51.954 45.9869 51.6302 46.0551C51.3064 46.1233 50.9723 46.1265 50.6473 46.0646C50.3222 46.0028 50.0127 45.877 49.7366 45.6946C49.4606 45.5121 49.2235 45.2767 49.0391 45.002C48.8547 44.7273 48.7266 44.4186 48.6624 44.0941C48.5982 43.7695 48.599 43.4354 48.6649 43.1111C48.7308 42.7868 48.8604 42.4789 49.0461 42.2051C50.7408 39.6404 51.9237 36.7724 52.5299 33.7588C53.4707 34.547 54.1817 35.5742 54.588 36.7324C54.9943 37.8906 55.0809 39.1368 54.8386 40.3401Z" fill="white"/>
<path d="M51.8749 11.1276L48.2887 14.7138C46.0541 11.692 43.14 9.2383 39.7818 7.55087C36.4237 5.86343 32.7157 4.98963 28.9574 5.00007C20.6212 5.01632 13.2299 9.39257 8.93366 15.9313L5.29616 12.2938C7.91878 8.56704 11.3839 5.51179 15.4097 3.37647C19.4356 1.24115 23.9085 0.0860472 28.4649 0.00507273C28.6474 0.00132273 28.8287 7.26199e-05 29.0099 7.26199e-05C33.417 -0.00980262 37.7681 0.987612 41.7309 2.91614C45.6937 4.84468 49.1634 7.65332 51.8749 11.1276V11.1276Z" fill="#8257E5"/>
<path d="M41.5564 32.4617L37.0254 55.0017C36.7534 56.3548 37.6298 57.6722 38.9829 57.9442C40.336 58.2162 41.6534 57.3398 41.9254 55.9867L46.4564 33.4467C46.7284 32.0936 45.852 30.7762 44.4989 30.5042C43.1458 30.2322 41.8284 31.1086 41.5564 32.4617Z" fill="#04D361"/>
<path d="M52.8887 42.2088L51.2424 50.3875C50.885 52.1628 49.837 53.7234 48.329 54.726C46.821 55.7286 44.9764 56.0911 43.2011 55.7338L42.0524 55.5025L43.2424 49.5938L46.3937 33.935L47.5424 34.1663C49.3173 34.525 50.8776 35.5728 51.8812 37.08C52.0193 37.2878 52.1458 37.5031 52.2599 37.725C52.9732 39.1047 53.1949 40.6862 52.8887 42.2088V42.2088Z" fill="white"/>
<path d="M52.8887 42.2088L51.2424 50.3876C50.885 52.1628 49.837 53.7234 48.329 54.7261C46.821 55.7287 44.9764 56.0912 43.2011 55.7338L42.0524 55.5026L43.2424 49.5938C46.6669 45.9739 49.6903 41.9945 52.2599 37.7251C52.9732 39.1047 53.1949 40.6862 52.8887 42.2088V42.2088Z" fill="white"/>
</svg>
