<svg width="240" height="59" viewBox="0 0 240 59" fill="none" xmlns="http://www.w3.org/2000/svg">
<path d="M85.5587 42.3835V17.8303H95.9654C97.4235 17.8303 98.7288 18.1811 99.8811 18.8826C101.057 19.5607 101.986 20.4961 102.668 21.6887C103.374 22.8579 103.726 24.1791 103.726 25.6522C103.726 27.1722 103.374 28.5402 102.668 29.7561C101.986 30.9487 101.057 31.9075 99.8811 32.6324C98.7288 33.3339 97.4235 33.6847 95.9654 33.6847H90.6386V42.3835H85.5587ZM90.6033 29.0897H95.4362C96.3064 29.0897 97.0355 28.774 97.6234 28.1426C98.2349 27.4879 98.5406 26.6811 98.5406 25.7224C98.5406 24.7637 98.2349 23.9803 97.6234 23.3723C97.0355 22.7409 96.3064 22.4253 95.4362 22.4253H90.6033V29.0897Z" fill="white"/>
<path d="M116.06 42.7343C114.155 42.7343 112.462 42.325 110.98 41.5066C109.499 40.6648 108.334 39.519 107.488 38.0692C106.641 36.6193 106.218 34.9591 106.218 33.0884C106.218 31.241 106.641 29.5925 107.488 28.1426C108.334 26.6928 109.499 25.5587 110.98 24.7403C112.462 23.8984 114.155 23.4775 116.06 23.4775C117.918 23.4775 119.588 23.8984 121.069 24.7403C122.551 25.5587 123.715 26.6928 124.562 28.1426C125.409 29.5925 125.832 31.241 125.832 33.0884C125.832 34.9591 125.409 36.6193 124.562 38.0692C123.715 39.519 122.551 40.6648 121.069 41.5066C119.588 42.325 117.918 42.7343 116.06 42.7343ZM116.06 38.5602C117.001 38.5602 117.847 38.3264 118.6 37.8587C119.353 37.3676 119.929 36.7129 120.329 35.8944C120.752 35.076 120.964 34.1406 120.964 33.0884C120.964 32.0361 120.752 31.1007 120.329 30.2823C119.929 29.4638 119.353 28.8208 118.6 28.3531C117.847 27.8854 117.001 27.6516 116.06 27.6516C115.096 27.6516 114.237 27.8854 113.485 28.3531C112.732 28.8208 112.144 29.4638 111.721 30.2823C111.298 31.1007 111.086 32.0361 111.086 33.0884C111.086 34.1406 111.298 35.076 111.721 35.8944C112.144 36.7129 112.732 37.3676 113.485 37.8587C114.237 38.3264 115.096 38.5602 116.06 38.5602Z" fill="white"/>
<path d="M137.011 42.7343C135.364 42.7343 133.894 42.325 132.601 41.5066C131.307 40.6648 130.284 39.519 129.532 38.0692C128.803 36.6193 128.438 34.9708 128.438 33.1234C128.438 31.2527 128.803 29.5925 129.532 28.1426C130.284 26.6928 131.307 25.5587 132.601 24.7403C133.894 23.8984 135.364 23.4775 137.011 23.4775C138.139 23.4775 139.209 23.6997 140.221 24.144C141.256 24.5883 142.09 25.1612 142.725 25.8627V16.4273H147.558V42.3835H142.972L142.902 40.1737C142.29 40.8986 141.455 41.5066 140.397 41.9977C139.339 42.4887 138.21 42.7343 137.011 42.7343ZM138.069 38.7356C139.503 38.7356 140.668 38.2212 141.561 37.1923C142.455 36.14 142.902 34.7837 142.902 33.1234C142.902 31.4398 142.455 30.0835 141.561 29.0546C140.668 28.0023 139.503 27.4762 138.069 27.4762C136.634 27.4762 135.47 28.0023 134.576 29.0546C133.683 30.0835 133.236 31.4398 133.236 33.1234C133.236 34.7837 133.683 36.14 134.576 37.1923C135.47 38.2212 136.634 38.7356 138.069 38.7356Z" fill="white"/>
<path d="M160.522 42.7343C158.758 42.7343 157.171 42.3133 155.76 41.4715C154.372 40.6297 153.267 39.4839 152.444 38.0341C151.644 36.5843 151.244 34.9357 151.244 33.0884C151.244 31.2644 151.644 29.6275 152.444 28.1777C153.267 26.7279 154.372 25.5821 155.76 24.7403C157.171 23.8984 158.758 23.4775 160.522 23.4775C162.192 23.4775 163.709 23.7815 165.073 24.3895C166.46 24.9975 167.542 25.851 168.318 26.9501L165.673 30.1069C165.179 29.4288 164.497 28.8559 163.627 28.3882C162.756 27.8971 161.874 27.6516 160.981 27.6516C159.993 27.6516 159.111 27.8971 158.335 28.3882C157.582 28.8559 156.983 29.4989 156.536 30.3174C156.113 31.1358 155.901 32.0595 155.901 33.0884C155.901 34.1173 156.124 35.0409 156.571 35.8594C157.018 36.6778 157.629 37.3326 158.406 37.8236C159.182 38.2913 160.052 38.5251 161.016 38.5251C161.933 38.5251 162.78 38.3264 163.556 37.9288C164.332 37.5079 165.038 36.9233 165.673 36.1751L168.318 39.3319C167.519 40.3608 166.413 41.1909 165.002 41.8223C163.591 42.4303 162.098 42.7343 160.522 42.7343Z" fill="white"/>
<path d="M178.549 42.7343C176.997 42.7343 175.598 42.3133 174.351 41.4715C173.105 40.6297 172.105 39.4839 171.353 38.0341C170.624 36.5843 170.259 34.9357 170.259 33.0884C170.259 31.1943 170.624 29.534 171.353 28.1076C172.105 26.6578 173.117 25.5236 174.387 24.7052C175.68 23.8868 177.138 23.4775 178.761 23.4775C180.078 23.4775 181.23 23.7465 182.218 24.2843C183.206 24.7987 183.994 25.4769 184.582 26.3187V23.8634H189.379V42.3835H184.546V39.8931C183.888 40.7115 183.029 41.3897 181.971 41.9275C180.936 42.4653 179.796 42.7343 178.549 42.7343ZM179.855 38.5602C181.289 38.5602 182.453 38.0575 183.347 37.0519C184.241 36.0464 184.688 34.7252 184.688 33.0884C184.688 31.4515 184.241 30.1303 183.347 29.1248C182.453 28.1193 181.289 27.6165 179.855 27.6165C178.443 27.6165 177.291 28.1193 176.397 29.1248C175.527 30.1303 175.092 31.4515 175.092 33.0884C175.092 34.7252 175.527 36.0464 176.397 37.0519C177.291 38.0575 178.443 38.5602 179.855 38.5602Z" fill="white"/>
<path d="M200.683 42.7343C198.967 42.7343 197.438 42.4537 196.097 41.8924C194.757 41.3312 193.675 40.5362 192.852 39.5073L195.886 36.9467C196.591 37.7184 197.391 38.2796 198.285 38.6304C199.178 38.9577 200.084 39.1214 201.001 39.1214C201.73 39.1214 202.318 38.9577 202.765 38.6304C203.212 38.303 203.435 37.847 203.435 37.2624C203.435 36.748 203.223 36.3387 202.8 36.0347C202.377 35.7541 201.365 35.4034 199.766 34.9825C197.391 34.3745 195.709 33.5444 194.722 32.4921C193.851 31.5567 193.416 30.3992 193.416 29.0195C193.416 27.9205 193.746 26.9618 194.404 26.1433C195.063 25.3015 195.933 24.6467 197.015 24.1791C198.096 23.7114 199.272 23.4775 200.542 23.4775C202 23.4775 203.376 23.7348 204.67 24.2492C205.963 24.7637 207.045 25.4652 207.915 26.3538L205.305 29.1949C204.646 28.5869 203.882 28.0842 203.012 27.6867C202.165 27.2657 201.377 27.0553 200.648 27.0553C198.955 27.0553 198.108 27.6399 198.108 28.8091C198.132 29.3703 198.39 29.8146 198.884 30.142C199.355 30.4694 200.425 30.8552 202.095 31.2995C204.329 31.8841 205.904 32.6558 206.822 33.6145C207.621 34.4329 208.021 35.5203 208.021 36.8766C208.021 37.999 207.692 39.0045 207.033 39.8931C206.398 40.7817 205.528 41.4832 204.423 41.9977C203.318 42.4887 202.071 42.7343 200.683 42.7343Z" fill="white"/>
<path d="M213.499 42.3835V28.1777H209.971V23.8634H213.499V19.1281H218.297V23.8634H222.212V28.1777H218.297V42.3835H213.499Z" fill="white"/>
<path d="M225.444 42.3835V23.8634H230.1L230.171 26.915C230.782 25.9095 231.582 25.091 232.57 24.4597C233.581 23.8049 234.639 23.4775 235.745 23.4775C236.168 23.4775 236.556 23.5126 236.909 23.5828C237.285 23.6295 237.603 23.6997 237.861 23.7932L236.556 29.0546C236.297 28.9143 235.968 28.7974 235.568 28.7039C235.169 28.6103 234.769 28.5636 234.369 28.5636C233.217 28.5636 232.241 28.9611 231.441 29.7561C230.665 30.5278 230.277 31.5099 230.277 32.7025V42.3835H225.444Z" fill="white"/>
<path d="M56.0391 29.0657C56.075 33.6937 54.8848 38.2495 52.5883 42.2751C52.2909 42.7981 51.9759 43.3096 51.6432 43.8097C51.4788 44.0639 51.2652 44.2831 51.0149 44.4546C50.7646 44.6261 50.4826 44.7465 50.1851 44.8088C49.8877 44.8711 49.5808 44.8741 49.2821 44.8175C48.9835 44.761 48.6992 44.6461 48.4456 44.4795C48.192 44.3128 47.9741 44.0978 47.8047 43.8469C47.6353 43.5959 47.5177 43.314 47.4587 43.0175C47.3997 42.721 47.4005 42.4158 47.461 42.1196C47.5215 41.8234 47.6406 41.5421 47.8112 41.292C50.0031 37.9839 51.2524 34.147 51.4266 30.1892C51.6007 26.2315 50.693 22.3008 48.8 18.815C46.9071 15.3291 44.0996 12.4184 40.6759 10.3922C37.2523 8.36602 33.3404 7.30004 29.3562 7.3076C21.6979 7.32244 14.9078 11.3199 10.9609 17.2926C8.60151 20.8559 7.34599 25.0295 7.35007 29.2958C7.35415 33.562 8.61766 37.7332 10.9839 41.292C11.3194 41.7976 11.4391 42.415 11.3168 43.0083C11.1945 43.6017 10.8401 44.1224 10.3316 44.456C9.82317 44.7895 9.20227 44.9086 8.60552 44.787C8.00877 44.6653 7.48505 44.313 7.14958 43.8074C4.52585 39.8485 3.0188 35.2619 2.78568 30.5264C2.55256 25.7908 3.60192 21.0799 5.82426 16.885C8.0466 12.6902 11.3605 9.16533 15.4201 6.67815C19.4797 4.19097 24.1362 2.83267 28.9038 2.74498C29.0714 2.74155 29.2379 2.74041 29.4044 2.74041C36.4454 2.72599 43.2045 5.48989 48.198 10.4254C53.1916 15.361 56.0116 22.0649 56.0391 29.0657V29.0657Z" fill="white"/>
<path d="M13.3257 33.314L17.4882 53.9029C17.7381 55.1388 18.9484 55.9394 20.1914 55.6909C21.4345 55.4425 22.2396 54.2391 21.9897 53.0031L17.8272 32.4143C17.5773 31.1783 16.3671 30.3777 15.124 30.6262C13.881 30.8747 13.0758 32.078 13.3257 33.314Z" fill="#04D361"/>
<path d="M17.4089 53.4384L16.3536 53.6496C14.7854 53.9636 13.1559 53.6699 11.7983 52.8288C10.4407 51.9877 9.45764 50.6627 9.05009 49.1247C9.01909 49.0059 8.99038 48.8872 8.96626 48.7661L7.4539 41.2954C7.12615 39.6737 7.45938 37.9889 8.38034 36.6114C9.3013 35.2339 10.7346 34.2763 12.3654 33.949L13.4207 33.7378L15.2718 42.8813L17.4089 53.4384Z" fill="white"/>
<path d="M17.4089 53.4384L16.3536 53.6496C14.7855 53.9636 13.156 53.67 11.7984 52.8289C10.4408 51.9877 9.45765 50.6627 9.05011 49.1247C11.2805 47.2037 13.3604 45.1166 15.2718 42.8814L17.4089 53.4384Z" fill="white"/>
<path d="M53.1326 39.5884L52.5883 42.275C52.2909 42.798 51.9759 43.3095 51.6432 43.8096C51.4788 44.0638 51.2652 44.283 51.0149 44.4545C50.7646 44.626 50.4826 44.7464 50.1851 44.8087C49.8877 44.871 49.5807 44.874 49.2821 44.8174C48.9835 44.7609 48.6992 44.646 48.4456 44.4794C48.1919 44.3128 47.9741 44.0977 47.8047 43.8468C47.6353 43.5958 47.5177 43.3139 47.4587 43.0174C47.3997 42.7209 47.4005 42.4158 47.461 42.1196C47.5215 41.8234 47.6405 41.5421 47.8112 41.292C49.368 38.9493 50.4548 36.3296 51.0116 33.5768C51.876 34.2968 52.5292 35.2351 52.9024 36.293C53.2757 37.3509 53.3552 38.4893 53.1326 39.5884Z" fill="white"/>
<path d="M50.4099 12.9046L47.1153 16.1804C45.0625 13.4202 42.3853 11.1789 39.3003 9.63751C36.2153 8.09614 32.8088 7.29798 29.3562 7.30752C21.6979 7.32236 14.9078 11.3198 10.9609 17.2925L7.61923 13.9699C10.0286 10.5657 13.2119 7.77494 16.9103 5.82446C20.6088 3.87398 24.7179 2.81886 28.9038 2.7449C29.0714 2.74147 29.2379 2.74033 29.4044 2.74033C33.4532 2.73131 37.4504 3.64239 41.0909 5.40398C44.7314 7.16557 47.9189 9.73109 50.4099 12.9046V12.9046Z" fill="#8257E5"/>
<path d="M40.9306 32.392L36.7681 52.9809C36.5182 54.2168 37.3234 55.4202 38.5664 55.6686C39.8095 55.9171 41.0197 55.1166 41.2696 53.8806L45.4321 33.2917C45.682 32.0557 44.8769 30.8524 43.6338 30.6039C42.3908 30.3555 41.1805 31.156 40.9306 32.392Z" fill="#04D361"/>
<path d="M51.3412 41.2954L49.8288 48.7661C49.5005 50.3877 48.5378 51.8132 47.1524 52.7291C45.767 53.6449 44.0725 53.976 42.4416 53.6496L41.3862 53.4384L42.4795 48.0411L45.3744 33.7378L46.4298 33.949C48.0603 34.2767 49.4937 35.2338 50.4156 36.6106C50.5426 36.8004 50.6588 36.997 50.7636 37.1997C51.4188 38.4599 51.6226 39.9046 51.3412 41.2954V41.2954Z" fill="white"/>
<path d="M51.3412 41.2954L49.8288 48.7662C49.5005 50.3878 48.5378 51.8133 47.1524 52.7291C45.767 53.6449 44.0725 53.976 42.4416 53.6496L41.3862 53.4384L42.4795 48.0411C45.6254 44.7345 48.4029 41.0996 50.7636 37.1998C51.4188 38.46 51.6226 39.9046 51.3412 41.2954V41.2954Z" fill="white"/>
</svg>
